PathFileType	4	(X/Y/Z)	OpenSim_Sub06_EMGStiffKnee_Accel.trc
DataRate	CameraRate	NumFrames	NumMarkers	Units	OrigDataRate	OrigDataStartFrame	OrigNumFrames
100	100	31	8	m	100	2717	5432
Frame#	Time	torso_imu_offset_imu	pelvis_imu_offset_imu	tibia_r_imu_offset_imu	femur_r_imu_offset_imu	tibia_l_imu_offset_imu	femur_l_imu_offset_imu	toes_r_imu_offset_imu	toes_l_imu_offset_imu
				X1	Y1	Z1	X2	Y2	Z2	X3	Y3	Z3	X4	Y4	Z4	X5	Y5	Z5	X6	Y6	Z6	X7	Y7	Z7	X8		Y8	Z8	

2717	27.16000000	7.97105200	0.19765200	5.32507400	7.15356900	0.18089200	5.50008400	10.54207100	2.22090200	2.97381400	8.78395300	-1.96423500	4.95319500	6.67223200	-3.21310300	3.67339400	9.43480000	-2.16101600	-3.99333900	7.48511900	-4.85011600	8.58977700	4.99273800	-0.66749800	11.30297800
2718	27.17000000	8.04075000	0.66391700	5.22665700	6.94531900	-0.77049500	5.23056000	9.40575100	4.00343800	3.20394900	9.37995400	-1.91440300	5.90137000	7.68853600	0.18316100	4.13489600	10.82607100	-1.54987200	-3.59277600	9.01044800	-5.69203000	8.51803700	4.59156500	-0.24742600	11.50894000
2719	27.18000000	7.86101200	0.94661100	5.15190300	7.02769700	-1.51968500	5.04476900	8.31702500	5.79224800	2.32324600	9.95210700	-1.43734500	5.73077400	9.11671500	2.99435000	4.36927600	10.69385800	-0.28956700	-2.62368700	10.60533800	-7.28599200	7.10320900	5.07802600	0.11821500	11.28844200
2720	27.19000000	7.92914800	1.27326900	5.22881000	7.38471400	-2.03618000	5.01650900	7.39372700	7.26173100	1.85884600	10.52660300	-0.59046500	4.53597000	10.21864400	4.11055700	4.17600600	10.12312000	0.81218200	-1.33921700	9.68247500	-7.23216900	5.96363900	4.23280300	0.04588500	11.65140200
2721	27.20000000	8.24365700	1.51200500	5.43465900	8.10606700	-2.46968300	5.04633100	6.89134500	8.54205600	1.97681200	11.00888800	0.51849200	3.19963300	10.83657700	2.89902500	3.52656400	10.03424000	1.61536500	-0.48421900	9.45146800	-4.26538900	3.75682600	4.41596500	0.67627200	11.81678400
2722	27.21000000	8.58326100	1.67355000	5.62460200	8.81633100	-2.74827300	5.17283800	6.19930000	8.88105800	1.28612500	10.88633900	1.22006000	2.15927400	10.33606100	0.30095200	2.78531900	10.18262100	2.17781900	-0.64841500	8.58075800	0.75481400	5.02311600	3.99566000	0.94528600	11.68468800
2723	27.22000000	8.68747200	1.82376500	5.94509500	9.33438100	-2.99418800	5.15258600	5.36191900	8.52887700	0.89107200	10.02758400	1.28099600	1.27540300	9.57309700	-2.19647100	2.14837400	10.26214100	2.92650600	-1.62685400	11.57181100	-1.96454800	24.64776600	5.55875400	0.80967400	11.16142000
2724	27.23000000	8.73169500	1.90307500	6.09351400	9.37608600	-3.10939100	5.33491700	4.44913800	8.64569400	-0.35761400	9.74004900	0.86817100	0.89632000	9.80369200	-4.09612900	0.94443700	9.96977800	3.42447300	-2.54341100	18.56505900	-10.39295000	25.52872000	5.22170700	-0.03467900	11.24452300
2725	27.24000000	8.83421700	2.07723600	6.10116400	9.20579200	-2.63595500	5.71589600	3.32889000	8.78424000	-0.78042200	10.42048200	0.08711800	0.49985600	10.61035900	-5.36483000	0.05860400	9.60536300	3.55353900	-3.27820000	-6.06506201	-13.52556400	14.90137500	4.42797000	0.82562100	11.75170400
2726	27.25000000	9.28427500	2.01477900	6.01853900	9.02112000	-2.32099500	6.02558600	2.87300400	8.29050100	1.02489800	11.41507500	-0.43130500	0.21234200	10.82631700	-5.69525600	-0.51143200	9.42362300	3.04061300	-3.71625600	-11.28551200	-12.36183700	8.64444300	4.67557500	1.15745600	11.51846800
2727	27.26000000	9.40599100	1.59735000	6.15393400	9.14213400	-1.63520900	6.04017100	3.68334800	7.65137500	2.20683600	11.76636300	-0.54837200	0.45189800	10.45569900	-4.91998900	-0.43918000	9.17998700	1.98880800	-3.73347500	-3.24545000	-10.60002400	9.79051300	4.88878400	1.41605500	11.46793600
2728	27.27000000	9.12789500	1.38039700	6.32168700	9.32348500	-1.18354800	5.80603900	4.73972600	7.00888600	2.42174300	11.05907100	-0.25515300	1.14026300	10.00974400	-3.77442100	-0.19182500	9.10205500	0.68893400	-3.48288200	1.98253200	-9.44630500	11.73122400	5.22315200	1.50449500	11.39868100
2729	27.28000000	8.76635900	1.36213700	6.32248500	9.43462400	-0.76238200	5.64680800	5.03901900	5.45372200	1.72111300	10.17947300	0.02819100	1.53337800	9.80206800	-2.46509200	0.21261300	9.10276000	-0.77610500	-3.30195100	2.55677800	-8.76364400	11.91178700	4.56656400	1.18056300	11.37722800
2730	27.29000000	8.66561500	1.53840600	6.28222400	9.16164500	-0.51451900	5.45108600	4.34545800	4.01786400	1.87013600	9.49290200	-0.05772100	1.49298800	9.72095400	-1.07757300	0.98762300	9.03682900	-1.85592200	-3.32314300	1.57543200	-8.01426600	11.38299200	4.74928000	1.58323600	11.41739600
2731	27.30000000	8.75980000	1.52675500	6.20837700	8.65114100	-0.42398600	5.24307500	3.73416000	3.65027700	1.93670400	8.92667200	-0.41768700	1.28165500	9.85430400	0.40863200	1.51680800	8.96131400	-2.22846500	-3.46776100	1.88366800	-6.82131500	10.91164200	5.20882400	1.03643700	11.06431900
2732	27.31000000	8.70019000	1.51073900	6.10726300	8.16976600	-0.47713700	4.99049500	4.22299700	3.84491200	1.61813800	8.30233700	-0.82071700	1.26733900	10.03958500	1.30864900	1.78071000	8.76354300	-1.91550100	-3.79349000	2.40430800	-5.68272900	10.65628500	4.90007900	0.98278200	11.20164700
2733	27.32000000	8.52399000	1.44675800	6.05380100	7.88306000	-0.70361000	4.72313900	5.78035000	3.74157600	1.55200200	7.67297900	-1.26358200	1.56533100	9.93763700	1.39686500	1.84086200	8.39640800	-1.30140400	-4.31772100	3.43806700	-4.36237200	10.91068200	5.17856200	0.84673800	11.01220200
2734	27.33000000	8.45382500	1.35145100	5.94421000	7.74219700	-1.02217400	4.52128300	7.64907500	3.22972400	1.82249700	7.16936400	-1.58394200	1.96588600	9.55639900	0.74144000	1.70241200	8.35017500	-0.62500100	-4.61337500	4.34094700	-3.49483100	11.22183600	4.56111600	1.04498200	11.31246400
2735	27.34000000	8.38202100	1.24385900	5.88888600	7.74289700	-1.33471400	4.31493600	9.08316300	2.81988700	2.13524000	6.74975900	-2.03383200	2.29022400	9.41886200	-0.05783300	1.36207400	8.55033800	0.15217900	-4.38593700	5.17557700	-2.66983500	11.65826900	4.84898800	1.16748400	11.21803200
2736	27.35000000	8.27781700	1.12411500	5.74228600	7.71139500	-1.66499800	4.17198500	9.71074900	2.68727600	2.24475000	6.60098800	-2.37881300	2.34945500	9.50217800	-0.76093800	0.76853200	8.81065700	0.90231100	-3.71895800	5.93416400	-1.93809900	12.06556600	5.18698200	0.92971600	10.91358200
2737	27.36000000	8.31779600	1.07429100	5.74553600	7.73896700	-1.96104000	4.05125100	9.29474100	3.28915800	2.06475700	6.60937700	-2.49003700	2.36111800	9.54314700	-1.39875600	0.72868600	8.93078700	1.56485300	-3.01638100	6.74598000	-1.96480100	12.16907800	5.18260300	0.87873000	10.79364000
2738	27.37000000	8.31592300	1.07932900	5.78431100	7.87740100	-2.17683500	4.02615700	8.01123600	4.88815500	1.82571300	6.62614100	-2.51516800	2.41804200	9.70677300	-1.80989900	0.61626800	8.66510200	2.03019400	-2.37523700	7.22569900	-2.77882300	11.75430600	4.75650000	0.86227800	11.17087700
2739	27.38000000	8.49259400	1.00659100	5.71696100	7.93728700	-2.38848000	4.04778700	7.44092400	6.68917300	2.00236500	6.74377400	-2.62613300	2.67170200	9.85027600	-1.72105800	0.57309400	8.71215700	2.20163500	-1.82045900	9.14096800	-4.25821000	11.46336300	4.61089400	0.99570100	11.25379100
2740	27.39000000	8.53665100	0.96496700	5.59060500	8.00939700	-2.50931000	3.98208500	7.57934200	7.41643700	3.08859700	7.13114300	-2.48175000	2.98696600	9.89174100	-1.26328900	0.82059300	8.91930000	2.30906600	-1.46596300	11.61793800	-5.41390000	10.75788200	4.92628100	0.95891900	11.10117900
2741	27.40000000	8.65104600	0.98316500	5.51416000	8.10020900	-2.66310600	3.81403500	7.61165000	6.94661700	4.47461600	7.30954100	-3.14731700	3.37029000	9.91683900	-0.85972000	0.99923400	9.35671900	1.93897900	-1.41639500	13.89461800	-6.51546800	9.48058900	4.91651500	0.99461100	11.17916900
2742	27.41000000	8.92737400	1.05159400	5.58456700	8.25529700	-2.71699100	3.72700900	7.32116100	5.43342000	5.78768600	7.47198500	-4.35081300	3.66767300	9.92432100	-0.64844600	1.31173200	9.55933800	1.31854600	-1.67911500	15.71586000	-7.96106600	7.47337300	5.16967800	0.97876200	11.21325500
2743	27.42000000	9.27618400	1.11969900	5.55052400	8.27828400	-2.66058500	3.63398900	7.17572500	3.37961400	6.70058800	8.05935800	-5.14350300	4.01055200	10.13836100	-0.68015200	1.71796900	9.62371700	0.46359900	-2.14709900	17.46721300	-9.30787300	5.24063200	4.60702200	1.01591600	11.40861900
2744	27.43000000	9.48509200	1.19102000	5.54224100	8.20396700	-2.63620200	3.51651200	7.62406400	2.09208600	7.09479100	8.71700400	-5.14186900	4.48624400	10.17246900	-0.91868800	1.94158200	9.72231500	-0.15274600	-2.47853800	19.73187200	-8.54217400	4.54014300	4.73109100	1.14299100	11.50546400
2745	27.44000000	9.61734700	1.29834200	5.53730100	8.26669100	-2.72429700	3.39635600	8.65519600	1.98920500	5.39023200	8.99774000	-4.75784000	4.82849800	10.45575900	-1.36351800	1.79924200	9.74019100	-0.34203500	-2.75885500	21.14050400	-5.46299200	4.72412100	5.09165600	0.71971600	11.21154300
2746	27.45000000	9.71097700	1.49336800	5.49539600	8.23187100	-2.81269900	3.61620800	10.44883600	1.44882500	-0.36532100	8.72868200	-4.48103700	4.41910000	10.78174600	-1.83593800	1.54627700	9.82047400	-0.17574000	-3.02689600	17.96336200	2.61044900	5.56357000	4.85674100	0.65359600	11.41389800
2747	27.46000000	9.88587200	1.62918600	5.58652400	8.23712400	-3.29444800	4.00229100	12.79999200	2.61333900	-3.39206400	7.92217700	-5.49650100	3.58324300	11.02280000	-1.95784800	1.37790400	10.07107300	0.10296000	-3.29757000	17.23143600	8.44046900	6.35235300	5.07530700	0.44137100	11.58497200
